<svg width="1024" height="1024" viewBox="0 0 1024 1024" fill="none" xmlns="http://www.w3.org/2000/svg">
<path d="M505.136 148.254C511.959 148.24 518.786 148.227 525.609 148.208C546.98 148.151 568.347 148.162 589.715 148.22C611.618 148.277 633.518 148.223 655.421 148.113C674.389 148.021 693.354 147.997 712.318 148.026C723.579 148.042 734.836 148.028 746.093 147.965C835.779 147.537 835.779 147.537 870.4 167.254C872.861 168.617 875.325 169.979 877.862 171.383C898.656 183.728 910.967 205.175 919.467 227.2C929.386 281.747 900.714 326.918 873.813 372.054C871.567 375.825 869.318 379.601 867.004 383.488C859.498 396.056 851.948 408.593 844.373 421.12C843.162 423.127 841.95 425.131 840.701 427.199C797.208 499.03 755.367 561.61 670.778 587.288C652.933 591.627 635.348 591.459 617.069 591.439C609.659 591.511 602.249 591.582 594.842 591.654C583.27 591.732 571.699 591.787 560.125 591.807C548.884 591.838 537.644 591.954 526.401 592.081C521.253 592.053 521.254 592.053 516 592.029C491.619 592.367 471.726 596.538 454.106 614.332C452.516 616.82 450.922 619.305 449.28 621.865C446.389 626.296 446.389 626.296 443.44 630.815C438.412 639.202 433.504 647.622 428.667 656.122C427.209 658.664 425.748 661.211 424.247 663.832C421.379 668.87 418.56 673.936 415.795 679.028C403.145 701.488 387.219 718.48 362.912 728.402C344.334 733.208 324.748 731.911 305.681 731.812C300.847 731.819 296.013 731.829 291.179 731.843C281.063 731.86 270.947 731.836 260.831 731.788C247.99 731.73 235.152 731.764 222.311 731.826C212.324 731.863 202.338 731.85 192.351 731.822C187.624 731.816 182.898 731.826 178.171 731.85C133.987 732.024 90.2239 728.375 54.6143 699.734C46.4848 691.258 40.1493 682.493 34.1343 672.427C32.0222 668.908 29.9102 665.385 27.7342 661.76C13.9219 625.149 25.7278 590.084 40.961 556.374C48.143 542.772 56.0667 529.736 64.2143 516.694C68.795 509.212 73.3726 501.726 77.9475 494.241C80.2962 490.418 82.6446 486.598 85.0643 482.659C96.6539 463.685 107.949 444.532 119.254 425.387C123.801 417.71 128.347 410.037 132.894 402.361C141.191 388.339 149.47 374.306 157.727 360.261C162.576 352.017 167.433 343.778 172.291 335.539C175.651 329.831 178.999 324.117 182.347 318.402C228.184 240.688 276.356 182.524 366.732 158.557C412.505 147.317 458.257 148.141 505.136 148.254ZM283.641 293.893C269.312 310.266 258.674 327.718 248.108 346.665C243.957 353.943 239.801 361.213 235.641 368.48C233.433 372.354 231.224 376.228 228.949 380.222C217.539 400.139 205.755 419.84 194.006 439.559C189.872 446.498 185.744 453.441 181.618 460.384C172.064 476.461 162.504 492.531 152.945 508.604C145.184 521.65 137.429 534.702 129.679 547.755C126.164 553.674 122.643 559.589 119.123 565.504C117.014 569.058 114.906 572.608 112.734 576.267C110.895 579.362 109.055 582.455 107.16 585.643C96.8208 603.624 91.4312 617.315 95.5743 638.294C104.629 649.67 109.823 653.616 123.534 657.453C132.428 658.463 138.203 657.978 146.774 655.36C152.409 649.575 152.409 649.575 156.801 641.96C158.541 639.168 160.281 636.375 162.074 633.498C170.397 619.268 178.295 604.853 186.028 590.292C204.747 555.514 224.416 521.367 244.454 487.332C251.773 474.901 258.983 462.418 266.054 449.84C285.557 415.239 306.352 382.686 331.094 351.574C333.07 349.058 335.046 346.539 337.081 343.948C362.431 315.228 405.009 298.81 442.675 296.364C453.035 296.158 463.377 296.165 473.74 296.251C479.604 296.257 479.604 296.257 485.591 296.263C494.032 296.274 502.473 296.299 510.918 296.337C524.271 296.388 537.627 296.382 550.98 296.358C588.936 296.293 626.889 296.271 664.842 296.433C688.094 296.532 711.345 296.506 734.597 296.409C743.455 296.394 752.312 296.423 761.17 296.496C773.526 296.595 785.876 296.547 798.232 296.464C801.901 296.529 805.57 296.594 809.349 296.661C827.092 296.982 827.092 296.982 841.574 288.308C851.094 272.204 852.279 260.322 849.92 242.347C840.909 229.175 830.921 225.767 815.787 221.867C803.028 220.864 790.303 220.899 777.506 220.929C773.68 220.912 769.853 220.895 765.911 220.876C753.268 220.829 740.628 220.832 727.989 220.84C719.169 220.827 710.352 220.812 701.532 220.796C683.039 220.77 664.549 220.771 646.055 220.789C624.78 220.81 603.508 220.768 582.236 220.695C561.674 220.628 541.112 220.618 520.55 220.63C511.853 220.628 503.153 220.61 494.452 220.576C410.187 220.283 343.934 228.956 283.641 293.893ZM378.453 402.559C363.24 421.165 351.392 441.785 339.429 462.551C331.601 476.055 323.607 489.459 315.634 502.876C309.804 512.693 303.986 522.517 298.175 532.344C288.204 549.206 278.204 566.047 268.144 582.854C263.041 591.384 257.949 599.918 252.857 608.451C250.41 612.547 247.958 616.636 245.501 620.725C242.09 626.398 238.698 632.085 235.308 637.775C233.367 641.011 231.427 644.25 229.427 647.588C224.745 654.896 224.745 654.896 225.281 662.187C239.003 662.443 252.724 662.627 266.447 662.75C271.109 662.801 275.77 662.87 280.431 662.958C287.158 663.085 293.886 663.136 300.614 663.187C304.654 663.242 308.694 663.293 312.856 663.351C334.78 661.115 347.972 650.599 361.615 634.375C372.978 618.633 382.809 601.949 392.55 585.165C403.978 565.733 416.543 550.274 434.988 536.959C436.814 535.61 438.641 534.259 440.521 532.866C461.739 520.701 482.519 521.285 506.269 521.309C513.949 521.237 521.629 521.165 529.309 521.093C541.327 521.018 553.346 520.96 565.367 520.94C577.027 520.909 588.687 520.793 600.347 520.667C603.88 520.684 607.413 520.701 611.051 520.718C661.774 520.046 700.047 499.313 735.147 463.572C759.75 435.125 786.801 397.579 798.72 361.814C756.2 361.657 713.68 361.534 671.16 361.459C651.411 361.425 631.665 361.377 611.918 361.298C592.841 361.223 573.764 361.182 554.687 361.165C547.427 361.155 540.17 361.128 532.913 361.093C448.437 359.53 448.437 359.53 378.453 402.559Z" fill="#6495ED"/>
<path d="M945.493 351.573C955.733 354.987 955.733 354.987 959.601 360.933C961.276 364.537 961.276 364.537 962.987 368.213C964.69 371.79 964.69 371.79 966.427 375.439C978.94 404.415 976.93 440.938 965.547 469.975C950.514 501.176 930.109 529.333 910.52 557.797C903.308 568.419 896.396 579.208 889.521 590.056C843.134 663.193 794.549 712.462 708.147 733.703C675.864 740.645 642.772 739.314 609.922 738.987C596.35 738.853 582.786 738.833 569.214 738.881C564.637 738.778 564.637 738.778 559.967 738.676C545.771 738.737 535.688 739.266 524.264 748.199C515.918 757.217 510.054 765.187 504.306 776.001C502.446 779.411 500.589 782.821 498.674 786.333C496.804 789.859 494.937 793.381 493.015 797.013C475.761 829.341 460.278 858.057 423.253 870.4C415.607 870.827 407.948 871.048 400.288 871.168C397.967 871.205 395.646 871.243 393.253 871.284C368.872 871.663 344.487 871.823 320.106 871.97C308.581 872.045 297.059 872.188 285.536 872.39C271.558 872.636 257.584 872.758 243.605 872.799C238.318 872.834 233.032 872.912 227.746 873.032C186.818 873.909 153.57 867.263 121.567 839.427C107.955 825.358 100.592 810.711 95.5732 791.893C97.0666 784.268 97.0666 784.268 98.9866 778.24C102.326 780.028 102.326 780.029 105.733 781.855C108.716 783.408 111.7 784.961 114.773 786.562C119.169 788.876 119.169 788.876 123.653 791.241C141.113 798.74 158.615 799.17 177.425 799.324C179.715 799.348 182.004 799.368 184.363 799.392C191.878 799.457 199.392 799.498 206.907 799.532C209.49 799.546 212.073 799.56 214.734 799.577C228.399 799.645 242.064 799.696 255.728 799.727C269.784 799.764 283.838 799.884 297.892 800.017C308.757 800.109 319.621 800.136 330.485 800.147C335.664 800.164 340.844 800.205 346.023 800.266C384.962 800.802 384.962 800.802 419.84 785.067C427.598 776.117 427.598 776.117 433.067 765.44C435.316 761.545 437.562 757.651 439.88 753.64C442.303 749.326 444.723 745.008 447.147 740.693C485.434 673.478 485.434 673.478 518.263 663.743C526.22 662.067 533.408 661.736 541.539 661.702C544.676 661.678 547.813 661.654 551.042 661.63C554.417 661.617 557.79 661.603 561.268 661.586C568.487 661.507 575.706 661.425 582.926 661.34C594.251 661.221 605.573 661.122 616.895 661.074C676.226 660.784 722.19 657.729 771.413 621.227C773.922 619.387 776.431 617.547 779.015 615.653C819.637 582.711 848.008 534.955 874.359 490.506C886.641 469.886 899.966 449.946 913.36 430.036C929.765 405.255 942.943 381.529 945.493 351.573Z" fill="#6495ED"/>
</svg>
