<svg width="300" height="300" viewBox="0 0 300 300" fill="none" xmlns="http://www.w3.org/2000/svg">
<path d="M147.989 43.4336C149.988 43.4296 151.988 43.4257 153.987 43.4203C160.248 43.4034 166.508 43.4067 172.768 43.4236C179.185 43.4405 185.601 43.4246 192.018 43.3923C197.575 43.3655 203.131 43.3584 208.687 43.3668C211.986 43.3717 215.284 43.3676 218.582 43.3491C244.857 43.2236 244.857 43.2236 255 49C255.721 49.3993 256.443 49.7985 257.186 50.2099C263.278 53.8265 266.885 60.1098 269.375 66.5625C272.281 82.5431 263.881 95.7767 256 109C255.342 110.105 254.683 111.211 254.005 112.35C251.806 116.032 249.594 119.705 247.375 123.375C247.02 123.963 246.665 124.55 246.299 125.156C233.557 146.2 221.299 164.534 196.517 172.057C191.289 173.328 186.137 173.279 180.782 173.273C178.611 173.294 176.44 173.315 174.27 173.336C170.88 173.359 167.49 173.375 164.099 173.381C160.806 173.39 157.513 173.424 154.219 173.461C152.711 173.453 152.711 173.453 151.172 173.446C144.029 173.545 138.201 174.767 133.039 179.98C132.573 180.709 132.106 181.437 131.625 182.187C130.778 183.485 130.778 183.485 129.914 184.809C128.441 187.266 127.003 189.733 125.586 192.223C125.159 192.968 124.731 193.714 124.291 194.482C123.451 195.958 122.625 197.442 121.815 198.934C118.109 205.514 113.443 210.492 106.322 213.399C100.879 214.807 95.141 214.427 89.555 214.398C88.1388 214.4 86.7226 214.403 85.3065 214.407C82.3426 214.412 79.3791 214.405 76.4153 214.391C72.6534 214.374 68.8921 214.384 65.1301 214.402C62.2044 214.413 59.2787 214.409 56.3529 214.401C54.9681 214.399 53.5833 214.402 52.1985 214.409C39.2539 214.46 26.4328 213.391 16.0003 205C13.6186 202.517 11.7625 199.949 10.0003 197C9.38153 195.969 8.76278 194.937 8.12528 193.875C4.07871 183.149 7.53747 172.876 12.0003 163C14.1044 159.015 16.4258 155.196 18.8128 151.375C20.1548 149.183 21.4959 146.99 22.8362 144.797C23.5243 143.677 24.2123 142.558 24.9212 141.404C28.3166 135.845 31.6256 130.234 34.9378 124.625C36.2698 122.376 37.6018 120.128 38.9339 117.879C41.3646 113.771 43.7901 109.66 46.2092 105.545C47.6296 103.13 49.0526 100.716 50.4759 98.3022C51.4604 96.6302 52.4412 94.956 53.4219 93.2817C66.8509 70.5139 80.9638 53.4737 107.441 46.4521C120.851 43.1592 134.255 43.4006 147.989 43.4336ZM83.0979 86.1015C78.8999 90.8981 75.7835 96.011 72.6878 101.562C71.4719 103.694 70.2543 105.824 69.0354 107.953C68.3885 109.088 67.7415 110.223 67.075 111.393C63.7321 117.228 60.2797 123 56.8376 128.777C55.6266 130.81 54.4172 132.844 53.2083 134.878C50.4093 139.588 47.6086 144.296 44.808 149.005C42.5345 152.827 40.2623 156.651 37.9919 160.475C36.9621 162.209 35.9307 163.942 34.8992 165.675C34.2816 166.716 33.664 167.756 33.0276 168.828C32.4887 169.735 31.9498 170.641 31.3946 171.575C28.3655 176.843 26.7865 180.854 28.0003 187C30.6529 190.333 32.1748 191.489 36.1917 192.613C38.7973 192.909 40.4892 192.767 43.0003 192C44.6512 190.305 44.6512 190.305 45.9378 188.074C46.4476 187.256 46.9574 186.438 47.4827 185.595C49.921 181.426 52.2349 177.203 54.5003 172.937C59.9846 162.748 65.7469 152.744 71.6175 142.773C73.7615 139.131 75.8739 135.474 77.9456 131.789C83.6592 121.652 89.7517 112.115 97.0003 103C97.5791 102.263 98.1579 101.525 98.7542 100.766C106.181 92.3519 118.655 87.542 129.69 86.8253C132.725 86.7648 135.755 86.767 138.791 86.7922C140.509 86.794 140.509 86.794 142.263 86.7958C144.736 86.799 147.209 86.8063 149.683 86.8173C153.595 86.8322 157.508 86.8305 161.42 86.8236C172.54 86.8045 183.659 86.7979 194.778 86.8454C201.59 86.8744 208.402 86.8668 215.214 86.8384C217.809 86.8341 220.404 86.8427 222.999 86.8641C226.619 86.8929 230.237 86.8788 233.857 86.8547C234.932 86.8737 236.007 86.8926 237.114 86.9122C242.312 87.0064 242.312 87.0064 246.555 84.4651C249.344 79.7473 249.691 76.266 249 71C246.36 67.1411 243.434 66.1426 239 65C235.262 64.7062 231.534 64.7165 227.785 64.7253C226.664 64.7202 225.543 64.7151 224.388 64.7098C220.684 64.6959 216.981 64.6969 213.278 64.6992C210.694 64.6953 208.111 64.691 205.527 64.6862C200.109 64.6787 194.692 64.6789 189.274 64.6843C183.041 64.6903 176.809 64.6781 170.577 64.6567C164.553 64.6369 158.529 64.634 152.505 64.6375C149.957 64.637 147.408 64.6318 144.859 64.6217C120.172 64.5358 100.762 67.0768 83.0979 86.1015ZM110.875 117.937C106.418 123.388 102.947 129.429 99.4422 135.513C97.1488 139.469 94.8068 143.396 92.471 147.327C90.7628 150.203 89.0584 153.081 87.3559 155.96C84.4347 160.9 81.5052 165.834 78.5579 170.758C77.0628 173.257 75.5709 175.757 74.0792 178.257C73.3624 179.457 72.644 180.655 71.9241 181.853C70.9247 183.515 69.9311 185.181 68.9378 186.848C68.3693 187.796 67.8008 188.745 67.2151 189.723C65.8434 191.864 65.8434 191.864 66.0003 194C70.0204 194.075 74.0402 194.129 78.0608 194.165C79.4265 194.18 80.792 194.2 82.1575 194.226C84.1283 194.263 86.0995 194.278 88.0706 194.293C89.2541 194.309 90.4376 194.324 91.657 194.341C98.0801 193.686 101.945 190.605 105.942 185.852C109.271 181.24 112.151 176.352 115.005 171.435C118.353 165.742 122.034 161.213 127.438 157.312C127.973 156.917 128.508 156.521 129.059 156.113C135.275 152.549 141.363 152.72 148.321 152.727C150.571 152.706 152.821 152.685 155.071 152.664C158.592 152.642 162.113 152.625 165.635 152.619C169.051 152.61 172.467 152.576 175.883 152.539C176.918 152.544 177.953 152.549 179.019 152.554C193.879 152.357 205.092 146.283 215.375 135.812C222.583 127.478 230.508 116.478 234 106C221.543 105.954 209.086 105.918 196.629 105.896C190.843 105.886 185.058 105.872 179.273 105.849C173.684 105.827 168.095 105.815 162.506 105.81C160.379 105.807 158.253 105.799 156.127 105.789C131.378 105.331 131.378 105.331 110.875 117.937Z" fill="#6495ED"/>
<path d="M277 103C280 104 280 104 281.133 105.742C281.624 106.798 281.624 106.798 282.125 107.875C282.624 108.923 282.624 108.923 283.133 109.992C286.799 118.481 286.21 129.181 282.875 137.688C278.471 146.829 272.493 155.078 266.754 163.417C264.641 166.529 262.616 169.69 260.602 172.868C247.012 194.295 232.778 208.729 207.465 214.952C198.007 216.986 188.312 216.596 178.688 216.5C174.712 216.461 170.738 216.455 166.762 216.469C165.421 216.439 165.421 216.439 164.053 216.409C159.894 216.427 156.94 216.582 153.593 219.199C151.148 221.841 149.43 224.176 147.746 227.344C147.201 228.343 146.657 229.342 146.096 230.371C145.548 231.404 145.001 232.436 144.438 233.5C139.383 242.971 134.847 251.384 124 255C121.76 255.125 119.516 255.19 117.272 255.225C116.592 255.236 115.912 255.247 115.211 255.259C108.068 255.37 100.924 255.417 93.781 255.46C90.4045 255.482 87.0291 255.524 83.6531 255.583C79.5581 255.655 75.4642 255.691 71.3686 255.703C69.8198 255.713 68.271 255.736 66.7226 255.771C54.732 256.028 44.9913 254.081 35.6153 245.926C31.6276 241.804 29.4702 237.513 28 232C28.4375 229.766 28.4375 229.766 29 228C29.9784 228.524 29.9784 228.524 30.9766 229.059C31.8505 229.514 32.7245 229.969 33.625 230.438C34.9128 231.116 34.9128 231.116 36.2266 231.809C41.3418 234.006 46.4692 234.132 51.98 234.177C52.6508 234.184 53.3215 234.19 54.0126 234.197C56.2142 234.216 58.4156 234.228 60.6172 234.238C61.374 234.242 62.1308 234.246 62.9105 234.251C66.9138 234.271 70.9171 234.286 74.9204 234.295C79.0383 234.306 83.1556 234.341 87.2732 234.38C90.4561 234.407 93.6389 234.415 96.8219 234.418C98.3392 234.423 99.8566 234.435 101.374 234.453C112.782 234.61 112.782 234.61 123 230C125.273 227.378 125.273 227.378 126.875 224.25C127.534 223.109 128.192 221.968 128.871 220.793C129.581 219.529 130.29 218.264 131 217C142.217 197.308 142.217 197.308 151.835 194.456C154.166 193.965 156.272 193.868 158.654 193.858C159.573 193.851 160.492 193.844 161.438 193.837C162.427 193.833 163.415 193.829 164.434 193.824C166.549 193.801 168.664 193.777 170.779 193.752C174.097 193.717 177.414 193.688 180.731 193.674C198.113 193.589 211.579 192.694 226 182C226.735 181.461 227.47 180.922 228.227 180.367C240.128 170.716 248.44 156.725 256.16 143.703C259.758 137.662 263.662 131.82 267.586 125.987C272.392 118.727 276.253 111.776 277 103Z" fill="#6495ED"/>
</svg>
